<svg width="347" height="175" viewBox="0 0 347 175" fill="none" xmlns="http://www.w3.org/2000/svg">
<g filter="url(#filter0_d)">
<rect x="4" width="339" height="167" rx="21" fill="white"/>
<rect x="5" y="1" width="337" height="165" rx="20" stroke="black" stroke-width="2"/>
</g>
<g filter="url(#filter1_d)">
<path d="M104.96 25H113.36L125.12 77H119.52L116.8 65H101.52L98.8 77H93.2L104.96 25ZM109.12 31.24L102.56 60.2H115.68L109.12 31.24ZM141.881 77H136.281V25H141.881V77ZM183.284 67C183.284 74.4667 178.777 78.2 169.764 78.2C160.75 78.2 156.244 74.4667 156.244 67V60.2H161.844V67.32C161.844 69.24 162.51 70.7333 163.844 71.8C165.177 72.8667 167.15 73.4 169.764 73.4C172.377 73.4 174.35 72.8667 175.684 71.8C177.017 70.7333 177.684 69.2933 177.684 67.48C177.684 65.6133 177.47 64.1467 177.044 63.08C176.67 61.96 175.87 60.7867 174.644 59.56L160.564 45.8C158.91 44.1467 157.764 42.5467 157.124 41C156.537 39.4 156.244 37.4 156.244 35C156.244 31.4267 157.337 28.68 159.524 26.76C161.764 24.7867 165.124 23.8 169.604 23.8C178.19 23.8 182.484 27.5333 182.484 35V41.8H176.884V34.68C176.884 32.76 176.244 31.2667 174.964 30.2C173.737 29.1333 171.87 28.6 169.364 28.6C166.857 28.6 164.964 29.1333 163.684 30.2C162.457 31.2667 161.844 32.7333 161.844 34.6C161.844 36.4667 162.03 37.9333 162.404 39C162.777 40.0667 163.604 41.1867 164.884 42.36L179.204 56.12C180.75 57.8267 181.817 59.48 182.404 61.08C182.99 62.6267 183.284 64.6 183.284 67ZM197.688 77V25H203.288V72.2H217.928V77H197.688ZM247.131 67V62.6H252.731V67C252.731 70.5733 251.638 73.3467 249.451 75.32C247.265 77.24 243.985 78.2 239.611 78.2C235.238 78.2 231.931 77.24 229.691 75.32C227.451 73.3467 226.331 70.5733 226.331 67V35C226.331 31.4267 227.425 28.68 229.611 26.76C231.798 24.7867 235.078 23.8 239.451 23.8C243.825 23.8 247.131 24.7867 249.371 26.76C251.611 28.68 252.731 31.4267 252.731 35V52.6H231.931V67C231.931 71.2667 234.465 73.4 239.531 73.4C244.598 73.4 247.131 71.2667 247.131 67ZM231.931 35V47.8H247.131V35C247.131 30.7333 244.598 28.6 239.531 28.6C234.465 28.6 231.931 30.7333 231.931 35Z" fill="black"/>
</g>
<g filter="url(#filter2_d)">
<path d="M92.6 151H87V99H99.08C103.24 99 106.387 99.9867 108.52 101.96C110.707 103.933 111.8 106.68 111.8 110.2V121.4C111.8 126.84 109.453 130.307 104.76 131.8L114.6 151H108.44L99.08 132.6H92.6V151ZM106.2 121.4V110.2C106.2 108.173 105.587 106.6 104.36 105.48C103.133 104.36 101.373 103.8 99.08 103.8H92.6V127.8H99.08C103.827 127.8 106.2 125.667 106.2 121.4ZM151.828 109V141C151.828 144.573 150.681 147.347 148.388 149.32C146.148 151.24 142.761 152.2 138.228 152.2C133.748 152.2 130.361 151.24 128.068 149.32C125.775 147.347 124.628 144.573 124.628 141V109C124.628 105.427 125.748 102.68 127.988 100.76C130.281 98.7867 133.668 97.8 138.148 97.8C142.681 97.8 146.095 98.7867 148.388 100.76C150.681 102.68 151.828 105.427 151.828 109ZM146.228 141V109C146.228 104.733 143.561 102.6 138.228 102.6C132.895 102.6 130.228 104.733 130.228 109V141C130.228 145.267 132.895 147.4 138.228 147.4C143.561 147.4 146.228 145.267 146.228 141ZM165.809 141V99H171.409V141C171.409 143.027 171.836 144.6 172.689 145.72C173.596 146.84 175.223 147.4 177.569 147.4C179.916 147.4 182.076 146.493 184.049 144.68C186.023 142.867 187.009 141.107 187.009 139.4V99H192.609V151H190.209L188.129 145.88C186.956 147.8 185.436 149.347 183.569 150.52C181.756 151.64 179.756 152.2 177.569 152.2C169.729 152.2 165.809 148.467 165.809 141ZM207.441 99H225.041V103.8H213.041V142.12C213.041 143.613 213.414 144.867 214.161 145.88C214.961 146.893 216.054 147.4 217.441 147.4C218.881 147.4 219.974 146.92 220.721 145.96C221.467 144.947 221.841 143.667 221.841 142.12V132.6H227.441V141.8C227.441 145.16 226.534 147.747 224.721 149.56C222.961 151.32 220.561 152.2 217.521 152.2C214.481 152.2 212.027 151.32 210.161 149.56C208.347 147.747 207.441 145.16 207.441 141.8V99ZM258.241 141V136.6H263.841V141C263.841 144.573 262.747 147.347 260.561 149.32C258.374 151.24 255.094 152.2 250.721 152.2C246.347 152.2 243.041 151.24 240.801 149.32C238.561 147.347 237.441 144.573 237.441 141V109C237.441 105.427 238.534 102.68 240.721 100.76C242.907 98.7867 246.187 97.8 250.561 97.8C254.934 97.8 258.241 98.7867 260.481 100.76C262.721 102.68 263.841 105.427 263.841 109V126.6H243.041V141C243.041 145.267 245.574 147.4 250.641 147.4C255.707 147.4 258.241 145.267 258.241 141ZM243.041 109V121.8H258.241V109C258.241 104.733 255.707 102.6 250.641 102.6C245.574 102.6 243.041 104.733 243.041 109Z" fill="black"/>
</g>
<g filter="url(#filter3_d)">
<line x1="79" y1="89.5" x2="273" y2="89.5" stroke="black" stroke-width="3" stroke-dasharray="13 13"/>
</g>
<g filter="url(#filter4_d)">
<path d="M33.0464 101.663L24.3444 71.136" stroke="black" stroke-width="3" stroke-miterlimit="10" stroke-linecap="round" stroke-linejoin="round"/>
<path d="M31.4491 96.1465H61.2796" stroke="black" stroke-width="3" stroke-miterlimit="10" stroke-linecap="round" stroke-linejoin="round"/>
<path d="M33.1207 101.888H62.9914" stroke="black" stroke-width="3" stroke-miterlimit="10" stroke-linecap="round" stroke-linejoin="round"/>
<path d="M61.2796 96.1299L68.523 79.9624" stroke="black" stroke-width="3" stroke-miterlimit="10" stroke-linecap="round" stroke-linejoin="round"/>
<path d="M27.1149 80.9106L68.523 79.9624" stroke="black" stroke-width="3" stroke-miterlimit="10" stroke-linecap="round" stroke-linejoin="round"/>
<path d="M24.288 70.9553L19.8269 70.2136" stroke="black" stroke-width="3" stroke-miterlimit="10" stroke-linecap="round" stroke-linejoin="round"/>
<path d="M41.1035 106.138C41.1035 107.563 39.9413 108.729 38.4943 108.729C37.0472 108.729 35.8851 107.563 35.8851 106.138C35.8851 104.712 37.0472 103.546 38.4943 103.546C39.9413 103.546 41.1035 104.712 41.1035 106.138Z" stroke="black" stroke-width="3"/>
<path d="M61.0173 106.138C61.0173 107.563 59.8551 108.729 58.4081 108.729C56.961 108.729 55.7989 107.563 55.7989 106.138C55.7989 104.712 56.961 103.546 58.4081 103.546C59.8551 103.546 61.0173 104.712 61.0173 106.138Z" stroke="black" stroke-width="3"/>
</g>
<g filter="url(#filter5_d)">
<path d="M292.046 104.663L283.344 74.136" stroke="black" stroke-width="3" stroke-miterlimit="10" stroke-linecap="round" stroke-linejoin="round"/>
<path d="M290.449 99.1465H320.28" stroke="black" stroke-width="3" stroke-miterlimit="10" stroke-linecap="round" stroke-linejoin="round"/>
<path d="M292.121 104.888H321.991" stroke="black" stroke-width="3" stroke-miterlimit="10" stroke-linecap="round" stroke-linejoin="round"/>
<path d="M320.28 99.1299L327.523 82.9624" stroke="black" stroke-width="3" stroke-miterlimit="10" stroke-linecap="round" stroke-linejoin="round"/>
<path d="M286.115 83.9106L327.523 82.9624" stroke="black" stroke-width="3" stroke-miterlimit="10" stroke-linecap="round" stroke-linejoin="round"/>
<path d="M283.288 73.9553L278.827 73.2136" stroke="black" stroke-width="3" stroke-miterlimit="10" stroke-linecap="round" stroke-linejoin="round"/>
<path d="M300.103 109.138C300.103 110.563 298.941 111.729 297.494 111.729C296.047 111.729 294.885 110.563 294.885 109.138C294.885 107.712 296.047 106.546 297.494 106.546C298.941 106.546 300.103 107.712 300.103 109.138Z" stroke="black" stroke-width="3"/>
<path d="M320.017 109.138C320.017 110.563 318.855 111.729 317.408 111.729C315.961 111.729 314.799 110.563 314.799 109.138C314.799 107.712 315.961 106.546 317.408 106.546C318.855 106.546 320.017 107.712 320.017 109.138Z" stroke="black" stroke-width="3"/>
<line x1="323.939" y1="83.0607" x2="317.939" y2="77.0607" stroke="black" stroke-width="3"/>
<line y1="-1.5" x2="8.48528" y2="-1.5" transform="matrix(-0.707107 0.707107 0.707107 0.707107 321 78)" stroke="black" stroke-width="3"/>
<line x1="304.723" y1="83.0941" x2="294.69" y2="73.0607" stroke="black" stroke-width="3"/>
<path d="M296.78 73.0291L286.941 83" stroke="black" stroke-width="3"/>
<line x1="314.189" y1="81.3107" x2="305.939" y2="73.0607" stroke="black" stroke-width="3"/>
<path d="M308 73L300 80.5" stroke="black" stroke-width="3"/>
</g>
<defs>
<filter id="filter0_d" x="0" y="0" width="347" height="175" filterUnits="userSpaceOnUse" color-interpolation-filters="sRGB">
<feFlood flood-opacity="0" result="BackgroundImageFix"/>
<feColorMatrix in="SourceAlpha" type="matrix" values="0 0 0 0 0 0 0 0 0 0 0 0 0 0 0 0 0 0 127 0"/>
<feOffset dy="4"/>
<feGaussianBlur stdDeviation="2"/>
<feColorMatrix type="matrix" values="0 0 0 0 0 0 0 0 0 0 0 0 0 0 0 0 0 0 0.25 0"/>
<feBlend mode="normal" in2="BackgroundImageFix" result="effect1_dropShadow"/>
<feBlend mode="normal" in="SourceGraphic" in2="effect1_dropShadow" result="shape"/>
</filter>
<filter id="filter1_d" x="89.2" y="23.8" width="167.531" height="62.4" filterUnits="userSpaceOnUse" color-interpolation-filters="sRGB">
<feFlood flood-opacity="0" result="BackgroundImageFix"/>
<feColorMatrix in="SourceAlpha" type="matrix" values="0 0 0 0 0 0 0 0 0 0 0 0 0 0 0 0 0 0 127 0"/>
<feOffset dy="4"/>
<feGaussianBlur stdDeviation="2"/>
<feColorMatrix type="matrix" values="0 0 0 0 0 0 0 0 0 0 0 0 0 0 0 0 0 0 0.25 0"/>
<feBlend mode="normal" in2="BackgroundImageFix" result="effect1_dropShadow"/>
<feBlend mode="normal" in="SourceGraphic" in2="effect1_dropShadow" result="shape"/>
</filter>
<filter id="filter2_d" x="83" y="97.8" width="184.841" height="62.4" filterUnits="userSpaceOnUse" color-interpolation-filters="sRGB">
<feFlood flood-opacity="0" result="BackgroundImageFix"/>
<feColorMatrix in="SourceAlpha" type="matrix" values="0 0 0 0 0 0 0 0 0 0 0 0 0 0 0 0 0 0 127 0"/>
<feOffset dy="4"/>
<feGaussianBlur stdDeviation="2"/>
<feColorMatrix type="matrix" values="0 0 0 0 0 0 0 0 0 0 0 0 0 0 0 0 0 0 0.25 0"/>
<feBlend mode="normal" in2="BackgroundImageFix" result="effect1_dropShadow"/>
<feBlend mode="normal" in="SourceGraphic" in2="effect1_dropShadow" result="shape"/>
</filter>
<filter id="filter3_d" x="75" y="88" width="202" height="11" filterUnits="userSpaceOnUse" color-interpolation-filters="sRGB">
<feFlood flood-opacity="0" result="BackgroundImageFix"/>
<feColorMatrix in="SourceAlpha" type="matrix" values="0 0 0 0 0 0 0 0 0 0 0 0 0 0 0 0 0 0 127 0"/>
<feOffset dy="4"/>
<feGaussianBlur stdDeviation="2"/>
<feColorMatrix type="matrix" values="0 0 0 0 0 0 0 0 0 0 0 0 0 0 0 0 0 0 0.25 0"/>
<feBlend mode="normal" in2="BackgroundImageFix" result="effect1_dropShadow"/>
<feBlend mode="normal" in="SourceGraphic" in2="effect1_dropShadow" result="shape"/>
</filter>
<filter id="filter4_d" x="13" y="54" width="63" height="82.2816" filterUnits="userSpaceOnUse" color-interpolation-filters="sRGB">
<feFlood flood-opacity="0" result="BackgroundImageFix"/>
<feColorMatrix in="SourceAlpha" type="matrix" values="0 0 0 0 0 0 0 0 0 0 0 0 0 0 0 0 0 0 127 0"/>
<feOffset dy="4"/>
<feGaussianBlur stdDeviation="2"/>
<feColorMatrix type="matrix" values="0 0 0 0 0 0 0 0 0 0 0 0 0 0 0 0 0 0 0.25 0"/>
<feBlend mode="normal" in2="BackgroundImageFix" result="effect1_dropShadow"/>
<feBlend mode="normal" in="SourceGraphic" in2="effect1_dropShadow" result="shape"/>
</filter>
<filter id="filter5_d" x="272" y="57" width="63" height="82.2816" filterUnits="userSpaceOnUse" color-interpolation-filters="sRGB">
<feFlood flood-opacity="0" result="BackgroundImageFix"/>
<feColorMatrix in="SourceAlpha" type="matrix" values="0 0 0 0 0 0 0 0 0 0 0 0 0 0 0 0 0 0 127 0"/>
<feOffset dy="4"/>
<feGaussianBlur stdDeviation="2"/>
<feColorMatrix type="matrix" values="0 0 0 0 0 0 0 0 0 0 0 0 0 0 0 0 0 0 0.25 0"/>
<feBlend mode="normal" in2="BackgroundImageFix" result="effect1_dropShadow"/>
<feBlend mode="normal" in="SourceGraphic" in2="effect1_dropShadow" result="shape"/>
</filter>
</defs>
</svg>
