<svg width="222" height="51" viewBox="0 0 222 51" fill="none" xmlns="http://www.w3.org/2000/svg">
<g filter="url(#filter0_d)">
<path d="M26.423 14.15H29.468L33.731 33H31.701L30.715 28.65H25.176L24.19 33H22.16L26.423 14.15ZM27.931 16.412L25.553 26.91H30.309L27.931 16.412ZM39.807 33H37.777V14.15H39.807V33ZM54.8154 29.375C54.8154 32.0817 53.1817 33.435 49.9144 33.435C46.647 33.435 45.0134 32.0817 45.0134 29.375V26.91H47.0434V29.491C47.0434 30.187 47.285 30.7283 47.7684 31.115C48.2517 31.5017 48.967 31.695 49.9144 31.695C50.8617 31.695 51.577 31.5017 52.0604 31.115C52.5437 30.7283 52.7854 30.2063 52.7854 29.549C52.7854 28.8723 52.708 28.3407 52.5534 27.954C52.418 27.548 52.128 27.1227 51.6834 26.678L46.5794 21.69C45.98 21.0907 45.5644 20.5107 45.3324 19.95C45.1197 19.37 45.0134 18.645 45.0134 17.775C45.0134 16.4797 45.4097 15.484 46.2024 14.788C47.0144 14.0727 48.2324 13.715 49.8564 13.715C52.969 13.715 54.5254 15.0683 54.5254 17.775V20.24H52.4954V17.659C52.4954 16.963 52.2634 16.4217 51.7994 16.035C51.3547 15.6483 50.678 15.455 49.7694 15.455C48.8607 15.455 48.1744 15.6483 47.7104 16.035C47.2657 16.4217 47.0434 16.9533 47.0434 17.63C47.0434 18.3067 47.111 18.8383 47.2464 19.225C47.3817 19.6117 47.6814 20.0177 48.1454 20.443L53.3364 25.431C53.897 26.0497 54.2837 26.649 54.4964 27.229C54.709 27.7897 54.8154 28.505 54.8154 29.375ZM60.0367 33V14.15H62.0667V31.26H67.3737V33H60.0367ZM77.9601 29.375V27.78H79.9901V29.375C79.9901 30.6703 79.5937 31.6757 78.8011 32.391C78.0084 33.087 76.8194 33.435 75.2341 33.435C73.6487 33.435 72.4501 33.087 71.6381 32.391C70.8261 31.6757 70.4201 30.6703 70.4201 29.375V17.775C70.4201 16.4797 70.8164 15.484 71.6091 14.788C72.4017 14.0727 73.5907 13.715 75.1761 13.715C76.7614 13.715 77.9601 14.0727 78.7721 14.788C79.5841 15.484 79.9901 16.4797 79.9901 17.775V24.155H72.4501V29.375C72.4501 30.9217 73.3684 31.695 75.2051 31.695C77.0417 31.695 77.9601 30.9217 77.9601 29.375ZM72.4501 17.775V22.415H77.9601V17.775C77.9601 16.2283 77.0417 15.455 75.2051 15.455C73.3684 15.455 72.4501 16.2283 72.4501 17.775Z" fill="#4D4D4D"/>
</g>
<g filter="url(#filter1_d)">
<path d="M124.27 33H122.1V12.85H126.781C128.393 12.85 129.612 13.2323 130.439 13.997C131.286 14.7617 131.71 15.826 131.71 17.19V21.53C131.71 23.638 130.801 24.9813 128.982 25.56L132.795 33H130.408L126.781 25.87H124.27V33ZM129.54 21.53V17.19C129.54 16.4047 129.302 15.795 128.827 15.361C128.352 14.927 127.67 14.71 126.781 14.71H124.27V24.01H126.781C128.62 24.01 129.54 23.1833 129.54 21.53ZM147.221 16.725V29.125C147.221 30.5097 146.777 31.5843 145.888 32.349C145.02 33.093 143.708 33.465 141.951 33.465C140.215 33.465 138.903 33.093 138.014 32.349C137.125 31.5843 136.681 30.5097 136.681 29.125V16.725C136.681 15.3403 137.115 14.276 137.983 13.532C138.872 12.7673 140.184 12.385 141.92 12.385C143.677 12.385 144.999 12.7673 145.888 13.532C146.777 14.276 147.221 15.3403 147.221 16.725ZM145.051 29.125V16.725C145.051 15.0717 144.018 14.245 141.951 14.245C139.884 14.245 138.851 15.0717 138.851 16.725V29.125C138.851 30.7783 139.884 31.605 141.951 31.605C144.018 31.605 145.051 30.7783 145.051 29.125ZM152.639 29.125V12.85H154.809V29.125C154.809 29.9103 154.974 30.52 155.305 30.954C155.656 31.388 156.286 31.605 157.196 31.605C158.105 31.605 158.942 31.2537 159.707 30.551C160.471 29.8483 160.854 29.1663 160.854 28.505V12.85H163.024V33H162.094L161.288 31.016C160.833 31.76 160.244 32.3593 159.521 32.814C158.818 33.248 158.043 33.465 157.196 33.465C154.158 33.465 152.639 32.0183 152.639 29.125ZM168.771 12.85H175.591V14.71H170.941V29.559C170.941 30.1377 171.085 30.6233 171.375 31.016C171.685 31.4087 172.108 31.605 172.646 31.605C173.204 31.605 173.627 31.419 173.917 31.047C174.206 30.6543 174.351 30.1583 174.351 29.559V25.87H176.521V29.435C176.521 30.737 176.169 31.7393 175.467 32.442C174.785 33.124 173.855 33.465 172.677 33.465C171.499 33.465 170.548 33.124 169.825 32.442C169.122 31.7393 168.771 30.737 168.771 29.435V12.85ZM188.456 29.125V27.42H190.626V29.125C190.626 30.5097 190.202 31.5843 189.355 32.349C188.507 33.093 187.236 33.465 185.542 33.465C183.847 33.465 182.566 33.093 181.698 32.349C180.83 31.5843 180.396 30.5097 180.396 29.125V16.725C180.396 15.3403 180.819 14.276 181.667 13.532C182.514 12.7673 183.785 12.385 185.48 12.385C187.174 12.385 188.456 12.7673 189.324 13.532C190.192 14.276 190.626 15.3403 190.626 16.725V23.545H182.566V29.125C182.566 30.7783 183.547 31.605 185.511 31.605C187.474 31.605 188.456 30.7783 188.456 29.125ZM182.566 16.725V21.685H188.456V16.725C188.456 15.0717 187.474 14.245 185.511 14.245C183.547 14.245 182.566 15.0717 182.566 16.725Z" fill="#4D4D4D"/>
</g>
<g filter="url(#filter2_d)">
<path d="M96.4362 28.1175L92.9458 15.873" stroke="#4D4D4D" stroke-width="2" stroke-miterlimit="10" stroke-linecap="round" stroke-linejoin="round"/>
<path d="M95.7955 25.9048H107.761" stroke="#4D4D4D" stroke-width="2" stroke-miterlimit="10" stroke-linecap="round" stroke-linejoin="round"/>
<path d="M96.4659 28.2078H108.447" stroke="#4D4D4D" stroke-width="2" stroke-miterlimit="10" stroke-linecap="round" stroke-linejoin="round"/>
<path d="M107.76 25.8981L110.666 19.4133" stroke="#4D4D4D" stroke-width="2" stroke-miterlimit="10" stroke-linecap="round" stroke-linejoin="round"/>
<path d="M94.0571 19.7937L110.666 19.4134" stroke="#4D4D4D" stroke-width="2" stroke-miterlimit="10" stroke-linecap="round" stroke-linejoin="round"/>
<path d="M92.9232 15.8007L91.1339 15.5032" stroke="#4D4D4D" stroke-width="2" stroke-miterlimit="10" stroke-linecap="round" stroke-linejoin="round"/>
<mask id="path-9-inside-1" fill="white">
<ellipse cx="98.6213" cy="29.9124" rx="1.64819" ry="1.64121"/>
</mask>
<path d="M98.2695 29.9124C98.2695 29.7063 98.4351 29.5537 98.6213 29.5537V33.5537C100.628 33.5537 102.27 31.9314 102.27 29.9124H98.2695ZM98.6213 29.5537C98.8076 29.5537 98.9731 29.7063 98.9731 29.9124H94.9731C94.9731 31.9314 96.6145 33.5537 98.6213 33.5537V29.5537ZM98.9731 29.9124C98.9731 30.1186 98.8076 30.2712 98.6213 30.2712V26.2712C96.6145 26.2712 94.9731 27.8935 94.9731 29.9124H98.9731ZM98.6213 30.2712C98.4351 30.2712 98.2695 30.1186 98.2695 29.9124H102.27C102.27 27.8935 100.628 26.2712 98.6213 26.2712V30.2712Z" fill="#4D4D4D" mask="url(#path-9-inside-1)"/>
<mask id="path-11-inside-2" fill="white">
<ellipse cx="106.609" cy="29.9124" rx="1.64819" ry="1.64121"/>
</mask>
<path d="M106.257 29.9124C106.257 29.7063 106.422 29.5537 106.609 29.5537V33.5537C108.616 33.5537 110.257 31.9314 110.257 29.9124H106.257ZM106.609 29.5537C106.795 29.5537 106.961 29.7063 106.961 29.9124H102.961C102.961 31.9314 104.602 33.5537 106.609 33.5537V29.5537ZM106.961 29.9124C106.961 30.1186 106.795 30.2712 106.609 30.2712V26.2712C104.602 26.2712 102.961 27.8935 102.961 29.9124H106.961ZM106.609 30.2712C106.422 30.2712 106.257 30.1186 106.257 29.9124H110.257C110.257 27.8935 108.616 26.2712 106.609 26.2712V30.2712Z" fill="#4D4D4D" mask="url(#path-11-inside-2)"/>
</g>
<rect x="0.5" y="0.5" width="221" height="50" rx="4.5" fill="white" stroke="black"/>
<g filter="url(#filter3_d)">
<path d="M27.423 15.15H30.468L34.731 34H32.701L31.715 29.65H26.176L25.19 34H23.16L27.423 15.15ZM28.931 17.412L26.553 27.91H31.309L28.931 17.412ZM40.807 34H38.777V15.15H40.807V34ZM55.8154 30.375C55.8154 33.0817 54.1817 34.435 50.9144 34.435C47.647 34.435 46.0134 33.0817 46.0134 30.375V27.91H48.0434V30.491C48.0434 31.187 48.285 31.7283 48.7684 32.115C49.2517 32.5017 49.967 32.695 50.9144 32.695C51.8617 32.695 52.577 32.5017 53.0604 32.115C53.5437 31.7283 53.7854 31.2063 53.7854 30.549C53.7854 29.8723 53.708 29.3407 53.5534 28.954C53.418 28.548 53.128 28.1227 52.6834 27.678L47.5794 22.69C46.98 22.0907 46.5644 21.5107 46.3324 20.95C46.1197 20.37 46.0134 19.645 46.0134 18.775C46.0134 17.4797 46.4097 16.484 47.2024 15.788C48.0144 15.0727 49.2324 14.715 50.8564 14.715C53.969 14.715 55.5254 16.0683 55.5254 18.775V21.24H53.4954V18.659C53.4954 17.963 53.2634 17.4217 52.7994 17.035C52.3547 16.6483 51.678 16.455 50.7694 16.455C49.8607 16.455 49.1744 16.6483 48.7104 17.035C48.2657 17.4217 48.0434 17.9533 48.0434 18.63C48.0434 19.3067 48.111 19.8383 48.2464 20.225C48.3817 20.6117 48.6814 21.0177 49.1454 21.443L54.3364 26.431C54.897 27.0497 55.2837 27.649 55.4964 28.229C55.709 28.7897 55.8154 29.505 55.8154 30.375ZM61.0367 34V15.15H63.0667V32.26H68.3737V34H61.0367ZM78.9601 30.375V28.78H80.9901V30.375C80.9901 31.6703 80.5937 32.6757 79.8011 33.391C79.0084 34.087 77.8194 34.435 76.2341 34.435C74.6487 34.435 73.4501 34.087 72.6381 33.391C71.8261 32.6757 71.4201 31.6703 71.4201 30.375V18.775C71.4201 17.4797 71.8164 16.484 72.6091 15.788C73.4017 15.0727 74.5907 14.715 76.1761 14.715C77.7614 14.715 78.9601 15.0727 79.7721 15.788C80.5841 16.484 80.9901 17.4797 80.9901 18.775V25.155H73.4501V30.375C73.4501 31.9217 74.3684 32.695 76.2051 32.695C78.0417 32.695 78.9601 31.9217 78.9601 30.375ZM73.4501 18.775V23.415H78.9601V18.775C78.9601 17.2283 78.0417 16.455 76.2051 16.455C74.3684 16.455 73.4501 17.2283 73.4501 18.775Z" fill="black"/>
</g>
<g filter="url(#filter4_d)">
<path d="M125.27 34H123.1V13.85H127.781C129.393 13.85 130.612 14.2323 131.439 14.997C132.286 15.7617 132.71 16.826 132.71 18.19V22.53C132.71 24.638 131.801 25.9813 129.982 26.56L133.795 34H131.408L127.781 26.87H125.27V34ZM130.54 22.53V18.19C130.54 17.4047 130.302 16.795 129.827 16.361C129.352 15.927 128.67 15.71 127.781 15.71H125.27V25.01H127.781C129.62 25.01 130.54 24.1833 130.54 22.53ZM148.221 17.725V30.125C148.221 31.5097 147.777 32.5843 146.888 33.349C146.02 34.093 144.708 34.465 142.951 34.465C141.215 34.465 139.903 34.093 139.014 33.349C138.125 32.5843 137.681 31.5097 137.681 30.125V17.725C137.681 16.3403 138.115 15.276 138.983 14.532C139.872 13.7673 141.184 13.385 142.92 13.385C144.677 13.385 145.999 13.7673 146.888 14.532C147.777 15.276 148.221 16.3403 148.221 17.725ZM146.051 30.125V17.725C146.051 16.0717 145.018 15.245 142.951 15.245C140.884 15.245 139.851 16.0717 139.851 17.725V30.125C139.851 31.7783 140.884 32.605 142.951 32.605C145.018 32.605 146.051 31.7783 146.051 30.125ZM153.639 30.125V13.85H155.809V30.125C155.809 30.9103 155.974 31.52 156.305 31.954C156.656 32.388 157.286 32.605 158.196 32.605C159.105 32.605 159.942 32.2537 160.707 31.551C161.471 30.8483 161.854 30.1663 161.854 29.505V13.85H164.024V34H163.094L162.288 32.016C161.833 32.76 161.244 33.3593 160.521 33.814C159.818 34.248 159.043 34.465 158.196 34.465C155.158 34.465 153.639 33.0183 153.639 30.125ZM169.771 13.85H176.591V15.71H171.941V30.559C171.941 31.1377 172.085 31.6233 172.375 32.016C172.685 32.4087 173.108 32.605 173.646 32.605C174.204 32.605 174.627 32.419 174.917 32.047C175.206 31.6543 175.351 31.1583 175.351 30.559V26.87H177.521V30.435C177.521 31.737 177.169 32.7393 176.467 33.442C175.785 34.124 174.855 34.465 173.677 34.465C172.499 34.465 171.548 34.124 170.825 33.442C170.122 32.7393 169.771 31.737 169.771 30.435V13.85ZM189.456 30.125V28.42H191.626V30.125C191.626 31.5097 191.202 32.5843 190.355 33.349C189.507 34.093 188.236 34.465 186.542 34.465C184.847 34.465 183.566 34.093 182.698 33.349C181.83 32.5843 181.396 31.5097 181.396 30.125V17.725C181.396 16.3403 181.819 15.276 182.667 14.532C183.514 13.7673 184.785 13.385 186.48 13.385C188.174 13.385 189.456 13.7673 190.324 14.532C191.192 15.276 191.626 16.3403 191.626 17.725V24.545H183.566V30.125C183.566 31.7783 184.547 32.605 186.511 32.605C188.474 32.605 189.456 31.7783 189.456 30.125ZM183.566 17.725V22.685H189.456V17.725C189.456 16.0717 188.474 15.245 186.511 15.245C184.547 15.245 183.566 16.0717 183.566 17.725Z" fill="black"/>
</g>
<g filter="url(#filter5_d)">
<path d="M97.4362 29.1175L93.9458 16.873" stroke="black" stroke-width="2" stroke-miterlimit="10" stroke-linecap="round" stroke-linejoin="round"/>
<path d="M96.7955 26.9048H108.761" stroke="black" stroke-width="2" stroke-miterlimit="10" stroke-linecap="round" stroke-linejoin="round"/>
<path d="M97.4659 29.2078H109.447" stroke="black" stroke-width="2" stroke-miterlimit="10" stroke-linecap="round" stroke-linejoin="round"/>
<path d="M108.76 26.8981L111.666 20.4133" stroke="black" stroke-width="2" stroke-miterlimit="10" stroke-linecap="round" stroke-linejoin="round"/>
<path d="M95.0571 20.7937L111.666 20.4134" stroke="black" stroke-width="2" stroke-miterlimit="10" stroke-linecap="round" stroke-linejoin="round"/>
<path d="M93.9232 16.8007L92.1339 16.5032" stroke="black" stroke-width="2" stroke-miterlimit="10" stroke-linecap="round" stroke-linejoin="round"/>
<mask id="path-22-inside-3" fill="white">
<ellipse cx="99.6213" cy="30.9124" rx="1.64819" ry="1.64121"/>
</mask>
<path d="M99.2695 30.9124C99.2695 30.7063 99.4351 30.5537 99.6213 30.5537V34.5537C101.628 34.5537 103.27 32.9314 103.27 30.9124H99.2695ZM99.6213 30.5537C99.8076 30.5537 99.9731 30.7063 99.9731 30.9124H95.9731C95.9731 32.9314 97.6145 34.5537 99.6213 34.5537V30.5537ZM99.9731 30.9124C99.9731 31.1186 99.8076 31.2712 99.6213 31.2712V27.2712C97.6145 27.2712 95.9731 28.8935 95.9731 30.9124H99.9731ZM99.6213 31.2712C99.4351 31.2712 99.2695 31.1186 99.2695 30.9124H103.27C103.27 28.8935 101.628 27.2712 99.6213 27.2712V31.2712Z" fill="black" mask="url(#path-22-inside-3)"/>
<mask id="path-24-inside-4" fill="white">
<ellipse cx="107.609" cy="30.9124" rx="1.64819" ry="1.64121"/>
</mask>
<path d="M107.257 30.9124C107.257 30.7063 107.422 30.5537 107.609 30.5537V34.5537C109.616 34.5537 111.257 32.9314 111.257 30.9124H107.257ZM107.609 30.5537C107.795 30.5537 107.961 30.7063 107.961 30.9124H103.961C103.961 32.9314 105.602 34.5537 107.609 34.5537V30.5537ZM107.961 30.9124C107.961 31.1186 107.795 31.2712 107.609 31.2712V27.2712C105.602 27.2712 103.961 28.8935 103.961 30.9124H107.961ZM107.609 31.2712C107.422 31.2712 107.257 31.1186 107.257 30.9124H111.257C111.257 28.8935 109.616 27.2712 107.609 27.2712V31.2712Z" fill="black" mask="url(#path-24-inside-4)"/>
</g>
<defs>
<filter id="filter0_d" x="18.16" y="13.7151" width="65.8301" height="27.72" filterUnits="userSpaceOnUse" color-interpolation-filters="sRGB">
<feFlood flood-opacity="0" result="BackgroundImageFix"/>
<feColorMatrix in="SourceAlpha" type="matrix" values="0 0 0 0 0 0 0 0 0 0 0 0 0 0 0 0 0 0 127 0"/>
<feOffset dy="4"/>
<feGaussianBlur stdDeviation="2"/>
<feColorMatrix type="matrix" values="0 0 0 0 0 0 0 0 0 0 0 0 0 0 0 0 0 0 0.25 0"/>
<feBlend mode="normal" in2="BackgroundImageFix" result="effect1_dropShadow"/>
<feBlend mode="normal" in="SourceGraphic" in2="effect1_dropShadow" result="shape"/>
</filter>
<filter id="filter1_d" x="118.1" y="12.385" width="76.5257" height="29.08" filterUnits="userSpaceOnUse" color-interpolation-filters="sRGB">
<feFlood flood-opacity="0" result="BackgroundImageFix"/>
<feColorMatrix in="SourceAlpha" type="matrix" values="0 0 0 0 0 0 0 0 0 0 0 0 0 0 0 0 0 0 127 0"/>
<feOffset dy="4"/>
<feGaussianBlur stdDeviation="2"/>
<feColorMatrix type="matrix" values="0 0 0 0 0 0 0 0 0 0 0 0 0 0 0 0 0 0 0.25 0"/>
<feBlend mode="normal" in2="BackgroundImageFix" result="effect1_dropShadow"/>
<feBlend mode="normal" in="SourceGraphic" in2="effect1_dropShadow" result="shape"/>
</filter>
<filter id="filter2_d" x="86" y="9" width="30.0604" height="37.7943" filterUnits="userSpaceOnUse" color-interpolation-filters="sRGB">
<feFlood flood-opacity="0" result="BackgroundImageFix"/>
<feColorMatrix in="SourceAlpha" type="matrix" values="0 0 0 0 0 0 0 0 0 0 0 0 0 0 0 0 0 0 127 0"/>
<feOffset dy="4"/>
<feGaussianBlur stdDeviation="2"/>
<feColorMatrix type="matrix" values="0 0 0 0 0 0 0 0 0 0 0 0 0 0 0 0 0 0 0.25 0"/>
<feBlend mode="normal" in2="BackgroundImageFix" result="effect1_dropShadow"/>
<feBlend mode="normal" in="SourceGraphic" in2="effect1_dropShadow" result="shape"/>
</filter>
<filter id="filter3_d" x="19.16" y="14.7151" width="65.8301" height="27.72" filterUnits="userSpaceOnUse" color-interpolation-filters="sRGB">
<feFlood flood-opacity="0" result="BackgroundImageFix"/>
<feColorMatrix in="SourceAlpha" type="matrix" values="0 0 0 0 0 0 0 0 0 0 0 0 0 0 0 0 0 0 127 0"/>
<feOffset dy="4"/>
<feGaussianBlur stdDeviation="2"/>
<feColorMatrix type="matrix" values="0 0 0 0 0 0 0 0 0 0 0 0 0 0 0 0 0 0 0.13 0"/>
<feBlend mode="normal" in2="BackgroundImageFix" result="effect1_dropShadow"/>
<feBlend mode="normal" in="SourceGraphic" in2="effect1_dropShadow" result="shape"/>
</filter>
<filter id="filter4_d" x="119.1" y="13.385" width="76.5257" height="29.08" filterUnits="userSpaceOnUse" color-interpolation-filters="sRGB">
<feFlood flood-opacity="0" result="BackgroundImageFix"/>
<feColorMatrix in="SourceAlpha" type="matrix" values="0 0 0 0 0 0 0 0 0 0 0 0 0 0 0 0 0 0 127 0"/>
<feOffset dy="4"/>
<feGaussianBlur stdDeviation="2"/>
<feColorMatrix type="matrix" values="0 0 0 0 0 0 0 0 0 0 0 0 0 0 0 0 0 0 0.13 0"/>
<feBlend mode="normal" in2="BackgroundImageFix" result="effect1_dropShadow"/>
<feBlend mode="normal" in="SourceGraphic" in2="effect1_dropShadow" result="shape"/>
</filter>
<filter id="filter5_d" x="87" y="10" width="30.0604" height="37.7943" filterUnits="userSpaceOnUse" color-interpolation-filters="sRGB">
<feFlood flood-opacity="0" result="BackgroundImageFix"/>
<feColorMatrix in="SourceAlpha" type="matrix" values="0 0 0 0 0 0 0 0 0 0 0 0 0 0 0 0 0 0 127 0"/>
<feOffset dy="4"/>
<feGaussianBlur stdDeviation="2"/>
<feColorMatrix type="matrix" values="0 0 0 0 0 0 0 0 0 0 0 0 0 0 0 0 0 0 0.13 0"/>
<feBlend mode="normal" in2="BackgroundImageFix" result="effect1_dropShadow"/>
<feBlend mode="normal" in="SourceGraphic" in2="effect1_dropShadow" result="shape"/>
</filter>
</defs>
</svg>
